PathFileType	4	(X/Y/Z)	/Users/itak/Documents/Research/Walk-IL/dataset/trc/00549_00009.trc
DataRate	CameraRate	NumFrames	NumMarkers	Units	OrigDataRate	OrigDataStartFrame	OrigNumFrames
100.000000	100.000000	4	53	mm	100.000000	138	555
Frame#	Time	RPSI			LPSI			L3			STRN			T10			C7			CLAV			RBAK			LBAK			LSHO			LUPA			LAEL			LAOL			LWTS			LWPS			LFRA			LIFD			LHPS			LHTS			RSHO			RUPA			RAEL			RAOL			RWTS			RWPS			RFRA			RIFD			RHTS			RHPS			RBHD			LFHD			RFHD			LBHD			LHIP			RHIP			RASI			LASI			LKNE			LTHI			LANK			LTIP			LTOE			LMT1			LMT5			LHEE			RKNE			RTHI			RANK			RTIP			RTOE			RMT1			RMT5			RHEE			
		X1	Y1	Z1	X2	Y2	Z2	X3	Y3	Z3	X4	Y4	Z4	X5	Y5	Z5	X6	Y6	Z6	X7	Y7	Z7	X8	Y8	Z8	X9	Y9	Z9	X10	Y10	Z10	X11	Y11	Z11	X12	Y12	Z12	X13	Y13	Z13	X14	Y14	Z14	X15	Y15	Z15	X16	Y16	Z16	X17	Y17	Z17	X18	Y18	Z18	X19	Y19	Z19	X20	Y20	Z20	X21	Y21	Z21	X22	Y22	Z22	X23	Y23	Z23	X24	Y24	Z24	X25	Y25	Z25	X26	Y26	Z26	X27	Y27	Z27	X28	Y28	Z28	X29	Y29	Z29	X30	Y30	Z30	X31	Y31	Z31	X32	Y32	Z32	X33	Y33	Z33	X34	Y34	Z34	X35	Y35	Z35	X36	Y36	Z36	X37	Y37	Z37	X38	Y38	Z38	X39	Y39	Z39	X40	Y40	Z40	X41	Y41	Z41	X42	Y42	Z42	X43	Y43	Z43	X44	Y44	Z44	X45	Y45	Z45	X46	Y46	Z46	X47	Y47	Z47	X48	Y48	Z48	X49	Y49	Z49	X50	Y50	Z50	X51	Y51	Z51	X52	Y52	Z52	X53	Y53	Z53	

139	1.38	-784.2682495117188	994.9501953125	266.1056518554688	-776.603515625	998.9346923828125	132.6770782470703	-776.3968505859375	1098.172607421875	192.5142669677734	-530.9361572265625	1273.466186523438	199.2680358886719	-777.107177734375	1223.401489257812	186.835205078125	-711.8822021484375	1494.359008789062	198.2971496582031	-542.5146484375	1385.741943359375	199.5012512207031	-794.4946899414062	1376.730102539062	280.6012878417969	-744.1990356445312	1441.5595703125	104.5488052368164	-639.631591796875	1460.990234375	30.82512664794922	-643.0491943359375	1335.623901367188	-49.74537658691406	-609.4051513671875	1114.021118164062	-65.98509216308594	-703.720458984375	1101.101684570312	-31.43433952331543	-505.5127868652344	882.9415893554688	6.403400421142578	-534.4030151367188	853.410400390625	-70.00022125244141	-579.1661376953125	1029.853881835938	-65.27237701416016	-489.0759887695312	712.7213745117188	8.580702781677246	-521.646728515625	795.0427856445312	-57.42970657348633	-478.5154113769531	807.5160522460938	-6.429004192352295	-663.3034057617188	1456.8251953125	357.0616149902344	-692.8781127929688	1395.491333007812	423.4508666992188	-740.736572265625	1112.804809570312	476.5094909667969	-796.0975341796875	1102.818115234375	445.78759765625	-640.5816040039062	872.6477661132812	454.0654907226562	-692.5408325195312	862.0128784179688	517.6557006835938	-739.2410278320312	1056.678588867188	486.1838684082031	-658.5527954101562	698.9525146484375	465.8255310058594	-631.394775390625	777.91015625	471.5842590332031	-688.5527954101562	785.5732421875	517.2066650390625	-633.470458984375	1666.366577148438	265.4749755859375	-470.6180419921875	1688.73193359375	138.0420074462891	-495.2117919921875	1686.978881835938	280.2658996582031	-598.3855590820312	1666.220092773438	103.295295715332	-653.5636596679688	920.8355712890625	0.7375800609588623	-654.0986328125	934.361083984375	391.7910766601562	-573.26513671875	964.4592895507812	329.7338256835938	-571.3173217773438	943.7106323242188	53.94123458862305	-683.2461547851562	479.2242126464844	87.00582885742188	-655.2465209960938	640.6715698242188	45.22309875488281	-835.9767456054688	29.82488632202148	121.9211959838867	-787.46728515625	244.4623718261719	98.18331146240234	-625.4415893554688	39.66682815551758	175.3841094970703	-695.1799926757812	41.41088485717773	212.3281402587891	-713.1778564453125	33.27653121948242	103.9511337280273	-904.9252319335938	36.33174514770508	178.4422302246094	-476.9420776367188	522.9957275390625	353.7571411132812	-576.4185180664062	794.3195190429688	392.7027282714844	-439.1596069335938	42.88456726074219	343.6166381835938	-437.76025390625	382.6318969726562	345.8102722167969	-230.7528533935547	99.19532012939453	307.0022277832031	-289.3605346679688	83.58898162841797	264.8463134765625	-310.9204711914062	67.57151031494141	365.4111938476562	-490.5708618164062	30.60997772216797	285.833984375	
140	1.39	-779.3939819335938	994.044189453125	266.5322265625	-771.695556640625	998.14892578125	133.1387786865234	-771.4972534179688	1097.196044921875	192.9668426513672	-526.0548095703125	1272.492797851562	200.0501708984375	-772.2197265625	1222.460205078125	187.3377685546875	-707.0116577148438	1493.445556640625	198.939208984375	-537.63427734375	1384.812377929688	200.2475128173828	-789.695068359375	1375.750610351562	281.112060546875	-739.2806396484375	1440.6513671875	105.1815338134766	-634.623779296875	1460.059936523438	31.50807571411133	-638.03076171875	1334.639404296875	-48.95834732055664	-604.5921020507812	1112.952758789062	-65.0274658203125	-698.8952026367188	1100.186157226562	-30.49640274047852	-501.2727661132812	881.5713500976562	7.328819274902344	-530.263671875	852.1245727539062	-69.0850830078125	-574.5393676757812	1028.693115234375	-64.30252838134766	-485.3580322265625	711.2506103515625	9.464396476745605	-517.6506958007812	793.7359619140625	-56.54052352905273	-474.5663146972656	806.0042724609375	-5.513547420501709	-658.638427734375	1455.82958984375	357.7366333007812	-688.232666015625	1394.475463867188	424.0817260742188	-736.100830078125	1111.74267578125	476.9840393066406	-791.18505859375	1101.771484375	445.9997863769531	-636.0025634765625	871.5704956054688	454.5537719726562	-687.971923828125	860.9172973632812	518.0892333984375	-734.5888061523438	1055.615234375	486.6313171386719	-654.01953125	697.8590087890625	466.2304077148438	-626.8251953125	776.8038330078125	472.0532836914062	-684.0478515625	784.4824829101562	517.617919921875	-628.5560302734375	1665.507080078125	266.2659301757812	-465.7857971191406	1687.831909179688	138.7384338378906	-490.2939147949219	1686.0751953125	280.96142578125	-593.5845336914062	1665.325317382812	104.063606262207	-648.639404296875	919.9491577148438	1.28698456287384	-649.31884765625	933.333984375	392.2022705078125	-568.352783203125	963.5791625976562	330.2917785644531	-566.5575561523438	942.634521484375	54.54152297973633	-680.9689331054688	478.5496215820312	87.41682434082031	-651.8623046875	639.9713134765625	45.80532073974609	-835.9942626953125	29.87912940979004	121.9366683959961	-786.4290771484375	244.4465484619141	98.34268188476562	-625.396728515625	39.64460754394531	175.3513336181641	-695.0935668945312	41.34273910522461	212.2926635742188	-713.1387329101562	33.27191543579102	103.8822479248047	-904.8911743164062	36.47440338134766	178.5074157714844	-471.1786193847656	522.483154296875	354.0844116210938	-571.4973754882812	793.4550170898438	393.4254760742188	-428.9379272460938	42.90149307250977	342.7234802246094	-430.8471069335938	382.6188049316406	345.9911193847656	-220.6244506835938	101.2947540283203	308.2917175292969	-278.6678161621094	85.44680023193359	265.6106872558594	-301.24609375	68.95814514160156	366.0030212402344	-479.7066040039062	30.34339904785156	284.4571228027344	
141	1.4	-774.3416748046875	993.1549682617188	267.0513916015625	-766.6558837890625	997.3869018554688	133.6777954101562	-766.41015625	1096.200439453125	193.4779663085938	-521.0370483398438	1271.527465820312	200.8729553222656	-767.1436767578125	1221.487426757812	187.8768463134766	-702.0303955078125	1492.514038085938	199.644287109375	-532.631591796875	1383.8798828125	201.0580444335938	-784.76611328125	1374.727661132812	281.672607421875	-734.2334594726562	1439.73193359375	105.8666076660156	-629.5033569335938	1459.126098632812	32.23973846435547	-632.8893432617188	1333.646118164062	-48.12570190429688	-599.7294311523438	1111.865600585938	-64.03763580322266	-694.0103149414062	1099.291381835938	-29.48637199401855	-497.0856323242188	880.119140625	8.226513862609863	-526.212890625	850.7882690429688	-68.21487426757812	-569.90869140625	1027.508666992188	-63.32333374023438	-481.7754821777344	709.7130737304688	10.2725944519043	-513.7799682617188	792.373779296875	-55.70016479492188	-470.71728515625	804.3883666992188	-4.649353504180908	-653.8688354492188	1454.822143554688	358.4714660644531	-683.4778442382812	1393.443481445312	424.7616271972656	-731.328125	1110.664916992188	477.5095520019531	-786.0997314453125	1100.700439453125	446.2286071777344	-631.1875610351562	870.51513671875	455.0777587890625	-683.178466796875	859.8155517578125	518.5615234375	-729.7864990234375	1054.5302734375	487.1278076171875	-649.1793823242188	696.7754516601562	466.6687622070312	-621.986328125	775.7053833007812	472.5597534179688	-679.2664184570312	783.3803100585938	518.0494384765625	-623.548095703125	1664.642944335938	267.1256713867188	-460.8703002929688	1686.9326171875	139.5060119628906	-485.2817077636719	1685.198120117188	281.7191467285156	-588.6945190429688	1664.431030273438	104.8978271484375	-643.6133422851562	919.031982421875	1.904584765434265	-644.3151245117188	932.3118286132812	392.6428527832031	-563.2091674804688	962.6837158203125	330.8330993652344	-561.7122192382812	941.5292358398438	55.12759780883789	-678.586181640625	477.8277587890625	87.85285186767578	-648.4473876953125	639.2349243164062	46.36444854736328	-835.99853515625	29.93658828735352	121.9447708129883	-785.28955078125	244.4005737304688	98.49558258056641	-625.3447875976562	39.60372924804688	175.3227233886719	-695.0322265625	41.30331802368164	212.2361602783203	-713.1106567382812	33.26572418212891	103.8153762817383	-904.847412109375	36.62644195556641	178.5602264404297	-465.3381958007812	521.896240234375	354.4302978515625	-566.4008178710938	792.56005859375	394.1694030761719	-419.2001342773438	42.82846450805664	341.8796691894531	-424.0417785644531	382.4849243164062	346.1995849609375	-210.9942626953125	103.2137069702148	309.6475524902344	-268.508056640625	87.09685516357422	266.4400329589844	-292.1618041992188	70.24245452880859	366.6179504394531	-469.2869262695312	29.95285606384277	283.0877380371094	
142	1.41	-769.113525390625	992.2764892578125	267.6758117675781	-761.4940795898438	996.6444702148438	134.30810546875	-761.140625	1095.19140625	194.0558624267578	-515.875732421875	1270.577270507812	201.736328125	-761.8780517578125	1220.487182617188	188.4583435058594	-696.93603515625	1491.563720703125	200.41357421875	-527.5043334960938	1382.946166992188	201.9364776611328	-779.703369140625	1373.659912109375	282.2864990234375	-729.0556030273438	1438.802734375	106.6037902832031	-624.2675170898438	1458.191162109375	33.02325057983398	-627.6279296875	1332.646728515625	-47.25217819213867	-594.8106079101562	1110.764770507812	-63.01615524291992	-689.0712280273438	1098.423950195312	-28.40522956848145	-492.960693359375	878.5845336914062	9.096843719482422	-522.2476196289062	849.4100341796875	-67.39073944091797	-565.2722778320312	1026.305786132812	-62.34093856811523	-478.3302612304688	708.1068725585938	11.01099395751953	-510.0308837890625	790.9639282226562	-54.91025924682617	-466.9544982910156	802.6854858398438	-3.843952417373657	-648.9891967773438	1453.8046875	359.2659606933594	-678.6110229492188	1392.397583007812	425.4931640625	-726.4156494140625	1109.572631835938	478.0818786621094	-780.87939453125	1099.605590820312	446.5021667480469	-626.1334838867188	869.4822998046875	455.639404296875	-678.1654663085938	858.7107543945312	519.078125	-724.8346557617188	1053.425537109375	487.6668090820312	-644.0342407226562	695.7040405273438	467.1428833007812	-616.8807373046875	774.6184692382812	473.1055297851562	-674.2091064453125	782.2694702148438	518.5046997070312	-618.4544067382812	1663.7734375	268.052490234375	-455.8707580566406	1686.038330078125	140.3507690429688	-480.1812438964844	1684.343627929688	282.5502624511719	-583.71240234375	1663.5390625	105.7993469238281	-638.4829711914062	918.0753173828125	2.601610422134399	-639.0779418945312	931.3016357421875	393.1067504882812	-557.8324584960938	961.77001953125	331.3535461425781	-556.787353515625	940.4060668945312	55.69276809692383	-676.0674438476562	477.0602722167969	88.29730224609375	-644.99462890625	638.4628295898438	46.90743255615234	-835.9846801757812	29.99778938293457	121.947395324707	-784.0424194335938	244.3267517089844	98.64579010009766	-625.28173828125	39.53950119018555	175.2966918945312	-694.998046875	41.29180145263672	212.1486511230469	-713.0963745117188	33.25589752197266	103.7486419677734	-904.7935180664062	36.79192733764648	178.59716796875	-459.4307250976562	521.2269897460938	354.7987976074219	-561.1178588867188	791.6345825195312	394.9297790527344	-409.947509765625	42.64329147338867	341.0995178222656	-417.3473815917969	382.2161865234375	346.4267578125	-201.8711395263672	104.8818969726562	310.974365234375	-258.9084777832031	88.46489715576172	267.2630310058594	-283.6215209960938	71.34371948242188	367.1925659179688	-459.3511962890625	29.42374610900879	281.7639465332031	
